<?xml version="1.0" encoding="UTF-8"?>
<svg width="512" height="512" viewBox="0 0 512 512" xmlns="http://www.w3.org/2000/svg">
  <!-- Cat body -->
  <ellipse cx="256" cy="300" rx="120" ry="150" fill="#FF9966" stroke="#000" stroke-width="4"/>

  <!-- Cat head -->
  <circle cx="256" cy="180" r="90" fill="#FF9966" stroke="#000" stroke-width="4"/>

  <!-- Ears -->
  <path d="M 180 120 L 160 60 L 200 100 Z" fill="#FF9966" stroke="#000" stroke-width="4"/>
  <path d="M 332 120 L 352 60 L 312 100 Z" fill="#FF9966" stroke="#000" stroke-width="4"/>

  <!-- Eyes -->
  <circle cx="230" cy="170" r="18" fill="#000"/>
  <circle cx="282" cy="170" r="18" fill="#000"/>
  <circle cx="235" cy="165" r="6" fill="#fff"/>
  <circle cx="287" cy="165" r="6" fill="#fff"/>

  <!-- Nose -->
  <path d="M 256 190 L 246 200 L 266 200 Z" fill="#FF69B4" stroke="#000" stroke-width="2"/>

  <!-- Mouth -->
  <path d="M 256 200 L 256 210 M 256 210 Q 240 220 230 215 M 256 210 Q 272 220 282 215" stroke="#000" stroke-width="3" fill="none" stroke-linecap="round"/>

  <!-- Whiskers -->
  <line x1="180" y1="190" x2="120" y2="185" stroke="#000" stroke-width="2"/>
  <line x1="180" y1="200" x2="120" y2="205" stroke="#000" stroke-width="2"/>
  <line x1="332" y1="190" x2="392" y2="185" stroke="#000" stroke-width="2"/>
  <line x1="332" y1="200" x2="392" y2="205" stroke="#000" stroke-width="2"/>
</svg>