<svg xmlns="http://www.w3.org/2000/svg" width="840" height="400" viewBox="0 0 840 400">
<rect width="840" height="400" fill="#fcfcfb"/>
<text x="20" y="28" font-family="system-ui, -apple-system, Segoe UI, sans-serif" font-size="15" font-weight="600" fill="#0b0b0b">Primes fill the mod-30 skeleton uniformly</text>
<text x="20" y="46" font-family="system-ui, -apple-system, Segoe UI, sans-serif" font-size="12" fill="#52514e">Primes &#8804; 338,350 per allowed residue class (dashed line = exact uniform share)</text>
<line x1="70" y1="330.0" x2="810" y2="330.0" stroke="#e1e0d9" stroke-width="1"/>
<text x="62.0" y="334.0" font-family="system-ui, -apple-system, Segoe UI, sans-serif" font-size="11" font-weight="400" fill="#898781" text-anchor="end" style="font-variant-numeric: tabular-nums">0</text>
<line x1="70" y1="206.2" x2="810" y2="206.2" stroke="#e1e0d9" stroke-width="1"/>
<text x="62.0" y="210.2" font-family="system-ui, -apple-system, Segoe UI, sans-serif" font-size="11" font-weight="400" fill="#898781" text-anchor="end" style="font-variant-numeric: tabular-nums">2,000</text>
<line x1="70" y1="82.3" x2="810" y2="82.3" stroke="#e1e0d9" stroke-width="1"/>
<text x="62.0" y="86.3" font-family="system-ui, -apple-system, Segoe UI, sans-serif" font-size="11" font-weight="400" fill="#898781" text-anchor="end" style="font-variant-numeric: tabular-nums">4,000</text>
<line x1="70" y1="330" x2="810" y2="330" stroke="#c3c2b7" stroke-width="1"/>
<path d="M86.7,110.5 q0,-4 4,-4 h51.2 q4,0 4,4 v219.5 h-59.2 Z" fill="#2a78d6"/>
<text x="116.2" y="98.5" font-family="system-ui, -apple-system, Segoe UI, sans-serif" font-size="11" font-weight="400" fill="#52514e" text-anchor="middle" style="font-variant-numeric: tabular-nums">3,609</text>
<text x="116.2" y="348.0" font-family="system-ui, -apple-system, Segoe UI, sans-serif" font-size="11" font-weight="400" fill="#898781" text-anchor="middle" style="font-variant-numeric: tabular-nums">1</text>
<path d="M179.2,109.3 q0,-4 4,-4 h51.2 q4,0 4,4 v220.7 h-59.2 Z" fill="#2a78d6"/>
<text x="208.8" y="97.3" font-family="system-ui, -apple-system, Segoe UI, sans-serif" font-size="11" font-weight="400" fill="#52514e" text-anchor="middle" style="font-variant-numeric: tabular-nums">3,629</text>
<text x="208.8" y="348.0" font-family="system-ui, -apple-system, Segoe UI, sans-serif" font-size="11" font-weight="400" fill="#898781" text-anchor="middle" style="font-variant-numeric: tabular-nums">7</text>
<path d="M271.6,108.7 q0,-4 4,-4 h51.2 q4,0 4,4 v221.3 h-59.2 Z" fill="#2a78d6"/>
<text x="301.2" y="96.7" font-family="system-ui, -apple-system, Segoe UI, sans-serif" font-size="11" font-weight="400" fill="#52514e" text-anchor="middle" style="font-variant-numeric: tabular-nums">3,639</text>
<text x="301.2" y="348.0" font-family="system-ui, -apple-system, Segoe UI, sans-serif" font-size="11" font-weight="400" fill="#898781" text-anchor="middle" style="font-variant-numeric: tabular-nums">11</text>
<path d="M364.1,108.2 q0,-4 4,-4 h51.2 q4,0 4,4 v221.8 h-59.2 Z" fill="#2a78d6"/>
<text x="393.8" y="96.2" font-family="system-ui, -apple-system, Segoe UI, sans-serif" font-size="11" font-weight="400" fill="#52514e" text-anchor="middle" style="font-variant-numeric: tabular-nums">3,647</text>
<text x="393.8" y="348.0" font-family="system-ui, -apple-system, Segoe UI, sans-serif" font-size="11" font-weight="400" fill="#898781" text-anchor="middle" style="font-variant-numeric: tabular-nums">13</text>
<path d="M456.6,107.9 q0,-4 4,-4 h51.2 q4,0 4,4 v222.1 h-59.2 Z" fill="#2a78d6"/>
<text x="486.2" y="95.9" font-family="system-ui, -apple-system, Segoe UI, sans-serif" font-size="11" font-weight="400" fill="#52514e" text-anchor="middle" style="font-variant-numeric: tabular-nums">3,651</text>
<text x="486.2" y="348.0" font-family="system-ui, -apple-system, Segoe UI, sans-serif" font-size="11" font-weight="400" fill="#898781" text-anchor="middle" style="font-variant-numeric: tabular-nums">17</text>
<path d="M549.1,110.2 q0,-4 4,-4 h51.2 q4,0 4,4 v219.8 h-59.2 Z" fill="#2a78d6"/>
<text x="578.8" y="98.2" font-family="system-ui, -apple-system, Segoe UI, sans-serif" font-size="11" font-weight="400" fill="#52514e" text-anchor="middle" style="font-variant-numeric: tabular-nums">3,614</text>
<text x="578.8" y="348.0" font-family="system-ui, -apple-system, Segoe UI, sans-serif" font-size="11" font-weight="400" fill="#898781" text-anchor="middle" style="font-variant-numeric: tabular-nums">19</text>
<path d="M641.6,108.9 q0,-4 4,-4 h51.2 q4,0 4,4 v221.1 h-59.2 Z" fill="#2a78d6"/>
<text x="671.2" y="96.9" font-family="system-ui, -apple-system, Segoe UI, sans-serif" font-size="11" font-weight="400" fill="#52514e" text-anchor="middle" style="font-variant-numeric: tabular-nums">3,635</text>
<text x="671.2" y="348.0" font-family="system-ui, -apple-system, Segoe UI, sans-serif" font-size="11" font-weight="400" fill="#898781" text-anchor="middle" style="font-variant-numeric: tabular-nums">23</text>
<path d="M734.1,108.5 q0,-4 4,-4 h51.2 q4,0 4,4 v221.5 h-59.2 Z" fill="#2a78d6"/>
<text x="763.8" y="96.5" font-family="system-ui, -apple-system, Segoe UI, sans-serif" font-size="11" font-weight="400" fill="#52514e" text-anchor="middle" style="font-variant-numeric: tabular-nums">3,641</text>
<text x="763.8" y="348.0" font-family="system-ui, -apple-system, Segoe UI, sans-serif" font-size="11" font-weight="400" fill="#898781" text-anchor="middle" style="font-variant-numeric: tabular-nums">29</text>
<line x1="70" y1="105.0" x2="810" y2="105.0" stroke="#52514e" stroke-width="1" stroke-dasharray="4,3"/>
<text x="74.0" y="97.0" font-family="system-ui, -apple-system, Segoe UI, sans-serif" font-size="11" font-weight="400" fill="#52514e" text-anchor="start">uniform = 3,633</text>
<text x="440.0" y="372.0" font-family="system-ui, -apple-system, Segoe UI, sans-serif" font-size="11" font-weight="400" fill="#898781" text-anchor="middle">residue class mod 30 (the 8 lanes of the skeleton)</text>
</svg>