<svg xmlns="http://www.w3.org/2000/svg" width="840" height="440" viewBox="0 0 840 440">
<rect width="840" height="440" fill="#fcfcfb"/>
<text x="20" y="28" font-family="system-ui, -apple-system, Segoe UI, sans-serif" font-size="15" font-weight="600" fill="#0b0b0b">The prime staircase, rebuilt from zeta zeros</text>
<text x="20" y="46" font-family="system-ui, -apple-system, Segoe UI, sans-serif" font-size="12" fill="#52514e">Chebyshev &#968;(x) across pyramid layers 1&#8211;7 vs the explicit formula truncated to 10 and 200 zeros</text>
<line x1="70" y1="380.0" x2="810" y2="380.0" stroke="#e1e0d9" stroke-width="1"/>
<text x="62.0" y="384.0" font-family="system-ui, -apple-system, Segoe UI, sans-serif" font-size="11" font-weight="400" fill="#898781" text-anchor="end" style="font-variant-numeric: tabular-nums">0</text>
<line x1="70" y1="283.1" x2="810" y2="283.1" stroke="#e1e0d9" stroke-width="1"/>
<text x="62.0" y="287.1" font-family="system-ui, -apple-system, Segoe UI, sans-serif" font-size="11" font-weight="400" fill="#898781" text-anchor="end" style="font-variant-numeric: tabular-nums">50</text>
<line x1="70" y1="186.2" x2="810" y2="186.2" stroke="#e1e0d9" stroke-width="1"/>
<text x="62.0" y="190.2" font-family="system-ui, -apple-system, Segoe UI, sans-serif" font-size="11" font-weight="400" fill="#898781" text-anchor="end" style="font-variant-numeric: tabular-nums">100</text>
<line x1="70" y1="89.4" x2="810" y2="89.4" stroke="#e1e0d9" stroke-width="1"/>
<text x="62.0" y="93.4" font-family="system-ui, -apple-system, Segoe UI, sans-serif" font-size="11" font-weight="400" fill="#898781" text-anchor="end" style="font-variant-numeric: tabular-nums">150</text>
<text x="85.0" y="398.0" font-family="system-ui, -apple-system, Segoe UI, sans-serif" font-size="11" font-weight="400" fill="#898781" text-anchor="middle" style="font-variant-numeric: tabular-nums">5</text>
<text x="130.0" y="398.0" font-family="system-ui, -apple-system, Segoe UI, sans-serif" font-size="11" font-weight="400" fill="#898781" text-anchor="middle" style="font-variant-numeric: tabular-nums">14</text>
<text x="210.0" y="398.0" font-family="system-ui, -apple-system, Segoe UI, sans-serif" font-size="11" font-weight="400" fill="#898781" text-anchor="middle" style="font-variant-numeric: tabular-nums">30</text>
<text x="335.0" y="398.0" font-family="system-ui, -apple-system, Segoe UI, sans-serif" font-size="11" font-weight="400" fill="#898781" text-anchor="middle" style="font-variant-numeric: tabular-nums">55</text>
<text x="515.0" y="398.0" font-family="system-ui, -apple-system, Segoe UI, sans-serif" font-size="11" font-weight="400" fill="#898781" text-anchor="middle" style="font-variant-numeric: tabular-nums">91</text>
<text x="760.0" y="398.0" font-family="system-ui, -apple-system, Segoe UI, sans-serif" font-size="11" font-weight="400" fill="#898781" text-anchor="middle" style="font-variant-numeric: tabular-nums">140</text>
<line x1="70" y1="380" x2="810" y2="380" stroke="#c3c2b7" stroke-width="1"/>
<text x="440.0" y="425.0" font-family="system-ui, -apple-system, Segoe UI, sans-serif" font-size="11" font-weight="400" fill="#898781" text-anchor="middle">block number x (ticks = last block of each layer)</text>
<line x1="85.0" y1="70" x2="85.0" y2="380" stroke="#e1e0d9" stroke-width="1" stroke-dasharray="2,4"/>
<line x1="130.0" y1="70" x2="130.0" y2="380" stroke="#e1e0d9" stroke-width="1" stroke-dasharray="2,4"/>
<line x1="210.0" y1="70" x2="210.0" y2="380" stroke="#e1e0d9" stroke-width="1" stroke-dasharray="2,4"/>
<line x1="335.0" y1="70" x2="335.0" y2="380" stroke="#e1e0d9" stroke-width="1" stroke-dasharray="2,4"/>
<line x1="515.0" y1="70" x2="515.0" y2="380" stroke="#e1e0d9" stroke-width="1" stroke-dasharray="2,4"/>
<line x1="760.0" y1="70" x2="760.0" y2="380" stroke="#e1e0d9" stroke-width="1" stroke-dasharray="2,4"/>
<polyline points="70.0,379.4 71.2,378.8 72.5,378.8 73.8,378.7 75.0,377.5 76.2,376.5 77.5,376.4 78.8,376.7 80.0,375.9 81.2,375.1 82.5,375.2 83.8,375.3 85.0,373.6 86.2,371.9 87.5,371.9 88.8,372.3 90.0,372.0 91.2,371.9 92.5,372.4 93.8,372.0 95.0,370.1 96.2,368.4 97.5,368.1 98.8,368.2 100.0,367.7 101.2,367.1 102.5,366.8 103.8,366.7 105.0,366.1 106.2,365.2 107.5,364.5 108.8,364.5 110.0,364.9 111.2,365.3 112.5,365.1 113.8,364.1 115.0,362.5 116.2,360.9 117.5,359.9 118.8,359.7 120.0,360.2 121.2,360.6 122.5,360.5 123.8,359.4 125.0,357.7 126.2,356.1 127.5,355.0 128.8,354.7 130.0,355.0 131.2,355.4 132.5,355.5 133.8,355.4 135.0,355.1 136.2,355.0 137.5,355.0 138.8,355.1 140.0,355.0 141.2,354.6 142.5,353.7 143.8,352.4 145.0,350.9 146.2,349.6 147.5,348.8 148.8,348.3 150.0,348.2 151.2,348.1 152.5,347.8 153.8,347.1 155.0,346.1 156.2,344.8 157.5,343.4 158.8,342.4 160.0,341.7 161.2,341.6 162.5,341.9 163.8,342.5 165.0,343.1 166.2,343.6 167.5,343.7 168.8,343.5 170.0,342.9 171.2,342.1 172.5,341.2 173.8,340.2 175.0,339.4 176.2,338.6 177.5,338.0 178.8,337.4 180.0,336.9 181.2,336.4 182.5,335.8 183.8,335.3 185.0,334.7 186.2,334.2 187.5,333.8 188.8,333.5 190.0,333.3 191.2,333.2 192.5,333.1 193.8,333.0 195.0,332.9 196.2,332.6 197.5,332.3 198.8,331.8 200.0,331.1 201.2,330.4 202.5,329.7 203.8,328.9 205.0,328.1 206.2,327.3 207.5,326.6 208.8,325.8 210.0,325.0 211.2,324.2 212.5,323.3 213.8,322.4 215.0,321.4 216.2,320.4 217.5,319.4 218.8,318.4 220.0,317.6 221.2,316.9 222.5,316.4 223.8,316.1 225.0,316.0 226.2,316.1 227.5,316.3 228.8,316.7 230.0,317.1 231.2,317.4 232.5,317.7 233.8,317.9 235.0,317.9 236.2,317.7 237.5,317.4 238.8,316.8 240.0,316.1 241.2,315.3 242.5,314.4 243.8,313.6 245.0,312.8 246.2,312.0 247.5,311.4 248.8,310.9 250.0,310.6 251.2,310.4 252.5,310.2 253.8,310.2 255.0,310.1 256.2,310.0 257.5,309.9 258.8,309.7 260.0,309.3 261.2,308.8 262.5,308.2 263.8,307.4 265.0,306.5 266.2,305.6 267.5,304.5 268.8,303.4 270.0,302.4 271.2,301.3 272.5,300.3 273.8,299.4 275.0,298.7 276.2,298.0 277.5,297.4 278.8,296.9 280.0,296.5 281.2,296.2 282.5,295.9 283.8,295.6 285.0,295.4 286.2,295.1 287.5,294.7 288.8,294.4 290.0,293.9 291.2,293.4 292.5,292.8 293.8,292.2 295.0,291.5 296.2,290.8 297.5,290.1 298.8,289.4 300.0,288.7 301.2,288.1 302.5,287.5 303.8,286.9 305.0,286.4 306.2,285.9 307.5,285.5 308.8,285.1 310.0,284.8 311.2,284.4 312.5,284.1 313.8,283.8 315.0,283.5 316.2,283.2 317.5,282.9 318.8,282.5 320.0,282.1 321.2,281.7 322.5,281.3 323.8,280.8 325.0,280.3 326.2,279.8 327.5,279.3 328.8,278.9 330.0,278.4 331.2,278.0 332.5,277.7 333.8,277.3 335.0,277.0 336.2,276.8 337.5,276.6 338.8,276.4 340.0,276.3 341.2,276.1 342.5,276.0 343.8,275.9 345.0,275.7 346.2,275.6 347.5,275.3 348.8,275.1 350.0,274.7 351.2,274.3 352.5,273.8 353.8,273.3 355.0,272.6 356.2,271.9 357.5,271.2 358.8,270.3 360.0,269.4 361.2,268.5 362.5,267.5 363.8,266.6 365.0,265.6 366.2,264.7 367.5,263.8 368.8,262.9 370.0,262.1 371.2,261.4 372.5,260.7 373.8,260.1 375.0,259.6 376.2,259.2 377.5,258.8 378.8,258.5 380.0,258.3 381.2,258.2 382.5,258.1 383.8,258.0 385.0,257.9 386.2,257.9 387.5,257.9 388.8,257.8 390.0,257.7 391.2,257.6 392.5,257.4 393.8,257.2 395.0,256.9 396.2,256.6 397.5,256.2 398.8,255.6 400.0,255.1 401.2,254.4 402.5,253.7 403.8,252.9 405.0,252.1 406.2,251.2 407.5,250.3 408.8,249.4 410.0,248.5 411.2,247.5 412.5,246.6 413.8,245.6 415.0,244.7 416.2,243.8 417.5,243.0 418.8,242.1 420.0,241.4 421.2,240.7 422.5,240.0 423.8,239.4 425.0,238.9 426.2,238.3 427.5,237.9 428.8,237.5 430.0,237.1 431.2,236.8 432.5,236.5 433.8,236.2 435.0,235.9 436.2,235.7 437.5,235.4 438.8,235.2 440.0,234.9 441.2,234.6 442.5,234.3 443.8,234.0 445.0,233.7 446.2,233.3 447.5,232.9 448.8,232.5 450.0,232.1 451.3,231.6 452.5,231.1 453.7,230.6 455.0,230.0 456.2,229.4 457.5,228.8 458.8,228.2 460.0,227.6 461.2,226.9 462.5,226.3 463.8,225.6 465.0,225.0 466.3,224.3 467.5,223.7 468.8,223.0 470.0,222.4 471.2,221.8 472.5,221.2 473.8,220.6 475.0,220.1 476.2,219.5 477.5,219.0 478.8,218.5 480.0,218.0 481.2,217.5 482.5,217.1 483.8,216.7 485.0,216.2 486.2,215.8 487.5,215.4 488.8,215.1 490.0,214.7 491.3,214.3 492.5,214.0 493.7,213.6 495.0,213.3 496.2,213.0 497.5,212.6 498.8,212.3 500.0,212.0 501.2,211.7 502.5,211.4 503.8,211.1 505.0,210.8 506.2,210.5 507.5,210.2 508.8,209.9 510.0,209.7 511.2,209.4 512.5,209.1 513.8,208.9 515.0,208.6 516.2,208.4 517.5,208.1 518.8,207.9 520.0,207.7 521.2,207.4 522.5,207.2 523.8,207.0 525.0,206.8 526.2,206.6 527.5,206.4 528.8,206.1 530.0,205.9 531.2,205.7 532.5,205.5 533.8,205.2 535.0,205.0 536.2,204.7 537.5,204.4 538.8,204.1 540.0,203.8 541.2,203.5 542.5,203.2 543.8,202.8 545.0,202.4 546.2,202.0 547.5,201.6 548.8,201.1 550.0,200.6 551.2,200.1 552.5,199.6 553.8,199.0 555.0,198.4 556.2,197.8 557.5,197.2 558.8,196.5 560.0,195.9 561.2,195.2 562.5,194.4 563.8,193.7 565.0,192.9 566.2,192.2 567.5,191.4 568.8,190.6 570.0,189.7 571.2,188.9 572.5,188.1 573.8,187.2 575.0,186.4 576.2,185.5 577.5,184.6 578.8,183.8 580.0,182.9 581.2,182.0 582.5,181.2 583.8,180.3 585.0,179.5 586.2,178.6 587.5,177.8 588.8,176.9 590.0,176.1 591.2,175.3 592.5,174.5 593.8,173.7 595.0,172.9 596.2,172.1 597.5,171.3 598.8,170.6 600.0,169.8 601.2,169.1 602.5,168.3 603.8,167.6 605.0,166.9 606.2,166.2 607.5,165.5 608.8,164.9 610.0,164.2 611.2,163.6 612.5,162.9 613.8,162.3 615.0,161.7 616.2,161.1 617.5,160.6 618.8,160.0 620.0,159.5 621.2,158.9 622.5,158.4 623.8,157.9 625.0,157.4 626.2,157.0 627.5,156.5 628.8,156.1 630.0,155.7 631.2,155.3 632.5,154.9 633.8,154.6 635.0,154.2 636.2,153.9 637.5,153.6 638.8,153.3 640.0,153.0 641.2,152.8 642.5,152.5 643.8,152.3 645.0,152.1 646.2,151.9 647.5,151.7 648.8,151.6 650.0,151.4 651.2,151.3 652.5,151.1 653.8,151.0 655.0,150.9 656.2,150.7 657.5,150.6 658.8,150.5 660.0,150.4 661.2,150.3 662.5,150.1 663.8,150.0 665.0,149.9 666.2,149.7 667.5,149.5 668.8,149.4 670.0,149.2 671.2,149.0 672.5,148.8 673.8,148.5 675.0,148.3 676.2,148.0 677.5,147.7 678.8,147.4 680.0,147.1 681.2,146.8 682.5,146.4 683.8,146.0 685.0,145.6 686.2,145.1 687.5,144.7 688.8,144.2 690.0,143.7 691.2,143.1 692.5,142.6 693.8,142.0 695.0,141.4 696.2,140.8 697.5,140.2 698.8,139.5 700.0,138.9 701.2,138.2 702.5,137.5 703.8,136.8 705.0,136.1 706.2,135.4 707.5,134.6 708.8,133.9 710.0,133.2 711.2,132.4 712.5,131.7 713.8,131.0 715.0,130.3 716.2,129.5 717.5,128.8 718.8,128.1 720.0,127.4 721.2,126.7 722.5,126.0 723.8,125.3 725.0,124.7 726.2,124.0 727.5,123.4 728.8,122.8 730.0,122.1 731.2,121.6 732.5,121.0 733.8,120.4 735.0,119.9 736.2,119.4 737.5,118.8 738.8,118.3 740.0,117.9 741.2,117.4 742.5,117.0 743.8,116.5 745.0,116.1 746.2,115.7 747.5,115.3 748.8,114.9 750.0,114.6 751.2,114.2 752.5,113.8 753.8,113.5 755.0,113.2 756.2,112.8 757.5,112.5 758.8,112.2 760.0,111.9 761.2,111.5 762.5,111.2 763.8,110.9 765.0,110.6 766.2,110.3 767.5,109.9 768.8,109.6 770.0,109.3 771.2,109.0 772.5,108.6 773.8,108.3 775.0,107.9 776.2,107.6 777.5,107.2 778.8,106.8 780.0,106.4 781.2,106.0 782.5,105.6 783.8,105.2 785.0,104.8 786.2,104.4 787.5,103.9 788.8,103.5 790.0,103.0 791.2,102.6 792.5,102.1 793.8,101.6 795.0,101.2 796.2,100.7 797.5,100.2 798.8,99.7 800.0,99.2 801.2,98.7 802.5,98.1 803.8,97.6 805.0,97.1 806.2,96.6 807.5,96.1 808.8,95.6 810.0,95.0" fill="none" stroke="#eb6834" stroke-width="2" stroke-linejoin="round"/>
<polyline points="70.0,378.7 75.0,378.7 75.0,376.5 80.0,376.5 80.0,375.2 85.0,375.2 85.0,372.1 95.0,372.1 95.0,368.3 100.0,368.3 100.0,367.0 105.0,367.0 105.0,364.8 115.0,364.8 115.0,360.2 125.0,360.2 125.0,355.2 140.0,355.2 140.0,353.9 145.0,353.9 145.0,348.4 155.0,348.4 155.0,342.7 175.0,342.7 175.0,336.6 185.0,336.6 185.0,333.5 195.0,333.5 195.0,331.4 205.0,331.4 205.0,324.8 215.0,324.8 215.0,318.2 220.0,318.2 220.0,316.8 245.0,316.8 245.0,309.8 265.0,309.8 265.0,302.6 275.0,302.6 275.0,295.4 295.0,295.4 295.0,287.9 305.0,287.9 305.0,284.1 325.0,284.1 325.0,276.4 355.0,276.4 355.0,268.5 365.0,268.5 365.0,260.6 380.0,260.6 380.0,259.2 395.0,259.2 395.0,251.1 415.0,251.1 415.0,242.8 425.0,242.8 425.0,234.5 455.0,234.5 455.0,226.0 465.0,226.0 465.0,223.9 475.0,223.9 475.0,215.3 505.0,215.3 505.0,206.7 545.0,206.7 545.0,197.8 565.0,197.8 565.0,188.8 575.0,188.8 575.0,179.9 595.0,179.9 595.0,170.8 605.0,170.8 605.0,161.7 625.0,161.7 625.0,152.6 665.0,152.6 665.0,147.9 685.0,147.9 685.0,144.8 695.0,144.8 695.0,135.4 700.0,135.4 700.0,134.1 715.0,134.1 715.0,124.6 745.0,124.6 745.0,115.1 755.0,115.1 755.0,105.5 805.0,105.5 805.0,95.8 810.0,95.8" fill="none" stroke="#2a78d6" stroke-width="2" stroke-linejoin="round"/>
<polyline points="70.0,379.3 71.2,378.6 72.5,378.7 73.8,378.7 75.0,377.6 76.2,376.6 77.5,376.5 78.8,376.5 80.0,375.9 81.2,375.2 82.5,375.2 83.8,375.2 85.0,373.6 86.2,372.1 87.5,372.1 88.8,372.1 90.0,372.0 91.2,372.1 92.5,372.1 93.8,372.1 95.0,370.2 96.2,368.3 97.5,368.3 98.8,368.3 100.0,367.6 101.2,367.0 102.5,367.0 103.8,366.9 105.0,365.9 106.2,364.8 107.5,364.8 108.8,364.8 110.0,364.8 111.2,364.8 112.5,364.8 113.8,364.9 115.0,362.6 116.2,360.0 117.5,360.2 118.8,360.3 120.0,360.1 121.2,360.2 122.5,360.3 123.8,360.1 125.0,357.6 126.2,355.3 127.5,355.2 128.8,355.2 130.0,355.2 131.2,355.2 132.5,355.2 133.8,355.2 135.0,355.2 136.2,355.1 137.5,355.1 138.8,355.1 140.0,354.5 141.2,353.9 142.5,353.8 143.8,353.6 145.0,351.1 146.2,348.6 147.5,348.4 148.8,348.4 150.0,348.4 151.2,348.4 152.5,348.4 153.8,348.3 155.0,345.5 156.2,342.8 157.5,342.5 158.8,342.6 160.0,342.7 161.2,342.7 162.5,342.7 163.8,342.6 165.0,342.7 166.2,342.7 167.5,342.7 168.8,342.7 170.0,342.6 171.2,342.6 172.5,342.8 173.8,342.9 175.0,339.7 176.2,336.3 177.5,336.4 178.8,336.8 180.0,336.6 181.2,336.5 182.5,336.7 183.8,336.7 185.0,335.1 186.2,333.3 187.5,333.4 188.8,333.6 190.0,333.4 191.2,333.5 192.5,333.5 193.8,333.5 195.0,332.6 196.2,331.0 197.5,331.5 198.8,331.3 200.0,331.3 201.2,331.5 202.5,331.0 203.8,332.0 205.0,328.0 206.2,324.4 207.5,325.0 208.8,324.8 210.0,324.8 211.2,325.0 212.5,324.5 213.8,325.4 215.0,321.5 216.2,317.6 217.5,318.5 218.8,318.1 220.0,317.7 221.2,316.6 222.5,317.0 223.8,316.7 225.0,317.0 226.2,316.7 227.5,316.9 228.8,316.8 230.0,316.9 231.2,316.8 232.5,316.8 233.8,316.8 235.0,316.8 236.2,316.8 237.5,316.8 238.8,316.8 240.0,316.8 241.2,316.9 242.5,316.7 243.8,317.3 245.0,313.5 246.2,309.2 247.5,310.1 248.8,309.8 250.0,309.7 251.2,310.1 252.5,309.5 253.8,310.1 255.0,309.7 256.2,309.8 257.5,310.0 258.8,309.5 260.0,310.2 261.2,309.6 262.5,309.8 263.8,310.4 265.0,306.0 266.2,302.4 267.5,302.6 268.8,302.7 270.0,302.7 271.2,302.5 272.5,302.8 273.8,302.9 275.0,299.1 276.2,295.0 277.5,295.2 278.8,295.7 280.0,295.1 281.2,295.4 282.5,295.5 283.8,295.1 285.0,295.5 286.2,295.4 287.5,295.1 288.8,295.5 290.0,295.4 291.2,295.0 292.5,295.7 293.8,295.4 295.0,291.7 296.2,287.7 297.5,287.4 298.8,288.4 300.0,287.8 301.2,287.5 302.5,288.3 303.8,287.9 305.0,285.8 306.2,284.3 307.5,283.9 308.8,284.1 310.0,284.3 311.2,284.1 312.5,284.0 313.8,284.2 315.0,284.2 316.2,283.9 317.5,284.1 318.8,284.4 320.0,283.9 321.2,283.9 322.5,284.8 323.8,284.0 325.0,280.2 326.2,276.6 327.5,275.8 328.8,276.6 330.0,276.7 331.2,276.2 332.5,276.3 333.8,276.6 335.0,276.5 336.2,276.3 337.5,276.4 338.8,276.6 340.0,276.4 341.2,276.2 342.5,276.5 343.8,276.6 345.0,276.3 346.2,276.2 347.5,276.7 348.8,276.6 350.0,276.0 351.2,276.3 352.5,277.2 353.8,276.2 355.0,272.3 356.2,268.8 357.5,268.1 358.8,268.6 360.0,268.5 361.2,268.5 362.5,269.0 363.8,268.2 365.0,264.7 366.2,260.9 367.5,259.7 368.8,260.6 370.0,261.0 371.2,260.5 372.5,260.2 373.8,260.6 375.0,260.8 376.2,260.5 377.5,260.5 378.8,260.5 380.0,260.1 381.2,259.3 382.5,258.9 383.8,259.2 385.0,259.4 386.2,259.3 387.5,259.1 388.8,259.1 390.0,259.2 391.2,259.5 392.5,259.6 393.8,258.5 395.0,255.4 396.2,251.9 397.5,250.1 398.8,250.6 400.0,251.7 401.2,251.5 402.5,250.7 403.8,250.5 405.0,251.3 406.2,251.7 407.5,251.0 408.8,250.4 410.0,250.9 411.2,251.9 412.5,251.8 413.8,249.8 415.0,246.8 416.2,244.1 417.5,242.4 418.8,242.0 420.0,242.6 421.2,243.6 422.5,243.6 423.8,241.7 425.0,238.5 426.2,235.5 427.5,234.1 428.8,234.1 430.0,234.6 431.2,234.7 432.5,234.6 433.8,234.4 435.0,234.4 436.2,234.5 437.5,234.5 438.8,234.6 440.0,234.6 441.2,234.5 442.5,234.4 443.8,234.4 445.0,234.7 446.2,234.7 447.5,234.4 448.8,234.1 450.0,234.4 451.3,235.1 452.5,235.1 453.7,233.4 455.0,230.3 456.2,227.1 457.5,225.4 458.8,225.4 460.0,226.1 461.2,226.5 462.5,226.2 463.8,225.6 465.0,224.9 466.3,224.4 467.5,223.8 468.8,223.5 470.0,223.8 471.2,224.5 472.5,224.4 473.8,222.8 475.0,219.7 476.2,216.6 477.5,214.7 478.8,214.6 480.0,215.4 481.2,215.9 482.5,215.7 483.8,215.1 485.0,214.9 486.2,215.3 487.5,215.7 488.8,215.7 490.0,215.3 491.3,215.0 492.5,215.1 493.7,215.6 495.0,215.8 496.2,215.4 497.5,214.9 498.8,214.9 500.0,215.5 501.2,216.2 502.5,215.8 503.8,213.9 505.0,210.9 506.2,208.0 507.5,206.3 508.8,206.0 510.0,206.5 511.2,207.0 512.5,207.0 513.8,206.6 515.0,206.4 516.2,206.5 517.5,206.7 518.8,206.9 520.0,206.8 521.2,206.5 522.5,206.5 523.8,206.6 525.0,206.8 526.2,206.8 527.5,206.7 528.8,206.5 530.0,206.4 531.2,206.6 532.5,206.9 533.8,206.9 535.0,206.7 536.2,206.4 537.5,206.3 538.8,206.6 540.0,207.1 541.2,207.4 542.5,206.7 543.8,204.9 545.0,202.3 546.2,199.6 547.5,197.7 548.8,196.9 550.0,197.1 551.2,197.8 552.5,198.4 553.8,198.4 555.0,197.8 556.2,197.3 557.5,197.1 558.8,197.6 560.0,198.4 561.2,198.8 562.5,198.0 563.8,196.0 565.0,193.1 566.2,190.4 567.5,188.6 568.8,188.2 570.0,188.8 571.2,189.4 572.5,189.1 573.8,187.4 575.0,184.6 576.2,181.7 577.5,179.5 578.8,178.8 580.0,179.2 581.2,180.1 582.5,180.6 583.8,180.5 585.0,179.8 586.2,179.2 587.5,179.1 588.8,179.8 590.0,180.6 591.2,181.0 592.5,180.1 593.8,178.0 595.0,175.0 596.2,172.3 597.5,170.6 598.8,170.3 600.0,170.8 601.2,171.4 602.5,171.0 603.8,169.2 605.0,166.5 606.2,163.6 607.5,161.5 608.8,160.7 610.0,161.0 611.2,161.8 612.5,162.4 613.8,162.3 615.0,161.8 616.2,161.2 617.5,161.1 618.8,161.6 620.0,162.4 621.2,162.6 622.5,161.8 623.8,159.9 625.0,157.1 626.2,154.4 627.5,152.5 628.8,151.7 630.0,151.9 631.2,152.5 632.5,153.0 633.8,153.1 635.0,152.7 636.2,152.3 637.5,152.1 638.8,152.3 640.0,152.6 641.2,152.9 642.5,153.0 643.8,152.7 645.0,152.3 646.2,152.1 647.5,152.2 648.8,152.6 650.0,152.9 651.2,153.0 652.5,152.8 653.8,152.4 655.0,152.1 656.2,152.1 657.5,152.4 658.8,153.0 660.0,153.3 661.2,153.2 662.5,152.4 663.8,151.2 665.0,149.9 666.2,148.8 667.5,148.1 668.8,147.9 670.0,148.0 671.2,148.0 672.5,147.9 673.8,147.7 675.0,147.6 676.2,147.7 677.5,148.0 678.8,148.4 680.0,148.5 681.2,148.3 682.5,147.6 683.8,146.7 685.0,145.9 686.2,145.3 687.5,145.2 688.8,145.4 690.0,145.4 691.2,145.1 692.5,144.0 693.8,142.3 695.0,140.2 696.2,138.0 697.5,136.2 698.8,134.8 700.0,134.1 701.2,133.8 702.5,133.7 703.8,133.8 705.0,134.0 706.2,134.3 707.5,134.5 708.8,134.7 710.0,134.6 711.2,134.1 712.5,133.1 713.8,131.5 715.0,129.5 716.2,127.5 717.5,125.7 718.8,124.4 720.0,123.7 721.2,123.6 722.5,124.0 723.8,124.6 725.0,125.0 726.2,125.3 727.5,125.2 728.8,124.9 730.0,124.5 731.2,124.1 732.5,123.9 733.8,124.0 735.0,124.4 736.2,124.9 737.5,125.4 738.8,125.7 740.0,125.5 741.2,124.6 742.5,123.3 743.8,121.5 745.0,119.6 746.2,117.9 747.5,116.5 748.8,115.6 750.0,115.0 751.2,114.4 752.5,113.6 753.8,112.4 755.0,110.7 756.2,108.8 757.5,106.9 758.8,105.4 760.0,104.5 761.2,104.3 762.5,104.7 763.8,105.4 765.0,106.0 766.2,106.3 767.5,106.2 768.8,105.8 770.0,105.4 771.2,105.0 772.5,105.0 773.8,105.1 775.0,105.5 776.2,105.8 777.5,106.0 778.8,105.9 780.0,105.7 781.2,105.4 782.5,105.1 783.8,105.1 785.0,105.3 786.2,105.6 787.5,105.9 788.8,106.0 790.0,105.8 791.2,105.5 792.5,105.2 793.8,105.0 795.0,105.1 796.2,105.5 797.5,106.0 798.8,106.4 800.0,106.4 801.2,105.7 802.5,104.4 803.8,102.6 805.0,100.6 806.2,98.7 807.5,97.2 808.8,96.2 810.0,95.5" fill="none" stroke="#1baf7a" stroke-width="2" stroke-linejoin="round" stroke-dasharray="6,4"/>
<circle cx="70" cy="58" r="4" fill="#2a78d6"/>
<text x="80.0" y="62.0" font-family="system-ui, -apple-system, Segoe UI, sans-serif" font-size="11" font-weight="400" fill="#52514e" text-anchor="start">exact &#968;(x)</text>
<circle cx="211" cy="58" r="4" fill="#eb6834"/>
<text x="221.0" y="62.0" font-family="system-ui, -apple-system, Segoe UI, sans-serif" font-size="11" font-weight="400" fill="#52514e" text-anchor="start">10 zeros</text>
<circle cx="303" cy="58" r="4" fill="#1baf7a"/>
<text x="313.0" y="62.0" font-family="system-ui, -apple-system, Segoe UI, sans-serif" font-size="11" font-weight="400" fill="#52514e" text-anchor="start">200 zeros</text>
<text x="780.0" y="83.5" font-family="system-ui, -apple-system, Segoe UI, sans-serif" font-size="11" font-weight="600" fill="#2a78d6" text-anchor="middle">exact</text>
<text x="560.0" y="217.9" font-family="system-ui, -apple-system, Segoe UI, sans-serif" font-size="11" font-weight="600" fill="#eb6834" text-anchor="middle">10 zeros</text>
<text x="320.0" y="269.9" font-family="system-ui, -apple-system, Segoe UI, sans-serif" font-size="11" font-weight="600" fill="#1baf7a" text-anchor="middle">200 zeros</text>
</svg>